# xmcd CD database file
#
# Track frame offsets:
#	150
#	18187
#	42447
#	89642
#	118792
#	146957
#	169710
#	191490
#	216640
#	252070
#	271010
#
# Disc length: 3951 seconds
#
# Revision: 3
# Processed by: cddbd v1.5.2PL0 Copyright (c) Steve Scherf et al.
# Submitted via: CDex 1.70beta2
#
DISCID=a10f6d0b
DTITLE=Dzem - List do R. na 12 g³osów vol. 1
DYEAR=1995
DGENRE=Blues
TTITLE0=Balada o dziwnym malarzu
TTITLE1=Dzien w ktorym peklo niebo- Andrzej Zenczewski
TTITLE2=Naiwne pytania - Andrzej Zenczewski
TTITLE3=Tylko ja i ty - Jaroslaw Wajk
TTITLE4=Wehiku³lczasu - Jaroslaw Wajk
TTITLE5=Boze daj dom - Jerzy Dural
TTITLE6=Wokó³lsami lunatycy - Jerzy Dural
TTITLE7=Mala aleja roz - Martyna Jakubowicz
TTITLE8=Skazany na bluesa - Martyna Jakubowicz
TTITLE9=Kiepska gra - Wojciech Waglewski
TTITLE10=Kim jestem, jestem sobie - Wojciech Waglewski
EXTD=YEAR: 1995
EXTT0=
EXTT1=
EXTT2=
EXTT3=
EXTT4=
EXTT5=
EXTT6=
EXTT7=
EXTT8=
EXTT9=
EXTT10=
PLAYORDER=
